<svg viewBox="0 0 327 70" fill="none" xmlns="http://www.w3.org/2000/svg">
<path d="M2.64205 45.7495V23.9313H5.15625V31.9853H5.36932C5.55398 31.7012 5.80966 31.339 6.13636 30.8987C6.47017 30.4512 6.94602 30.0535 7.56392 29.7055C8.18892 29.3504 9.03409 29.1728 10.0994 29.1728C11.4773 29.1728 12.6918 29.5173 13.7429 30.2062C14.794 30.8951 15.6143 31.8717 16.2038 33.1359C16.7933 34.4001 17.0881 35.8916 17.0881 37.6103C17.0881 39.3433 16.7933 40.8454 16.2038 42.1167C15.6143 43.3809 14.7976 44.361 13.7536 45.057C12.7095 45.746 11.5057 46.0904 10.142 46.0904C9.09091 46.0904 8.24929 45.9164 7.61719 45.5684C6.98509 45.2133 6.49858 44.812 6.15767 44.3646C5.81676 43.91 5.55398 43.5336 5.36932 43.2353H5.07102V45.7495H2.64205ZM5.11364 37.5677C5.11364 38.8035 5.29474 39.8937 5.65696 40.8383C6.01918 41.7758 6.5483 42.5109 7.24432 43.0435C7.94034 43.5691 8.79261 43.8319 9.80114 43.8319C10.8523 43.8319 11.7294 43.5549 12.4325 43.0009C13.1428 42.4399 13.6754 41.687 14.0305 40.7424C14.3928 39.7907 14.5739 38.7325 14.5739 37.5677C14.5739 36.4171 14.3963 35.3802 14.0412 34.4569C13.6932 33.5265 13.1641 32.7914 12.4538 32.2516C11.7507 31.7048 10.8665 31.4313 9.80114 31.4313C8.77841 31.4313 7.91903 31.6906 7.22301 32.209C6.52699 32.7204 6.00142 33.4377 5.64631 34.361C5.29119 35.2772 5.11364 36.3461 5.11364 37.5677ZM21.9673 51.8859C21.5412 51.8859 21.1612 51.8504 20.8274 51.7793C20.4936 51.7154 20.2628 51.6515 20.1349 51.5876L20.7741 49.3717C21.3849 49.5279 21.9247 49.5847 22.3935 49.5421C22.8622 49.4995 23.2777 49.29 23.6399 48.9136C24.0092 48.5443 24.3466 47.9441 24.652 47.1131L25.1207 45.8347L19.0696 29.3859H21.7969L26.3139 42.4256H26.4844L31.0014 29.3859H33.7287L26.7827 48.1359C26.4702 48.981 26.0831 49.6806 25.6214 50.2346C25.1598 50.7957 24.6236 51.2112 24.0128 51.481C23.4091 51.7509 22.7273 51.8859 21.9673 51.8859Z" fill="black"/>
<path d="M164.008 47.6203L165.912 47.4302L166.045 51.2892C161.057 51.9926 156.792 52.3348 153.25 52.3348C148.528 52.3348 145.177 50.9661 143.216 48.2476C141.255 45.5102 140.265 41.2707 140.265 35.4916C140.265 24.0096 144.834 18.2495 153.993 18.2495C158.41 18.2495 161.723 19.4852 163.913 21.9565C166.103 24.4278 167.188 28.3058 167.188 33.5906L166.921 37.3356H145.234C145.234 40.9665 145.881 43.6472 147.195 45.3961C148.509 47.145 150.794 48.0195 154.05 48.0195C157.325 48.0195 160.638 47.8864 164.008 47.6203ZM162.237 33.4005C162.237 29.3894 161.59 26.5379 160.295 24.884C159.001 23.2301 156.906 22.3937 153.993 22.3937C151.08 22.3937 148.89 23.2682 147.424 25.0171C145.957 26.766 145.196 29.5605 145.158 33.4005H162.237Z" fill="black"/>
<path d="M185.142 22.6418C180.363 22.6418 177.983 24.2957 177.983 27.6225C177.983 29.1433 178.535 30.2269 179.621 30.8732C180.706 31.5005 183.2 32.1659 187.103 32.8312C191.007 33.5156 193.749 34.4661 195.367 35.6828C196.985 36.8994 197.804 39.1996 197.804 42.5644C197.804 45.9292 196.719 48.4005 194.549 49.9783C192.378 51.5562 189.217 52.3356 185.066 52.3356C182.343 52.3356 179.164 52.0314 175.489 51.4231L173.528 51.0999L173.794 46.8417C178.783 47.5831 182.553 47.9633 185.085 47.9633C187.618 47.9633 189.56 47.564 190.893 46.7466C192.226 45.9292 192.892 44.5795 192.892 42.6785C192.892 40.7775 192.321 39.4848 191.178 38.8194C190.036 38.1351 187.541 37.5077 183.695 36.8804C179.849 36.2721 177.108 35.3786 175.489 34.2C173.871 33.0213 173.052 30.8352 173.052 27.6415C173.052 24.4478 174.175 22.0906 176.441 20.5698C178.688 19.0489 181.505 18.2695 184.876 18.2695C187.541 18.2695 190.893 18.5737 194.91 19.182L196.757 19.5052L196.624 23.7064C191.769 23.003 187.941 22.6418 185.142 22.6418Z" fill="black"/>
<path d="M217.646 18.2495C219.093 18.2495 221.549 18.5157 224.995 19.0289L226.576 19.219L226.385 23.2111C222.882 22.8119 220.312 22.6218 218.636 22.6218C214.923 22.6218 212.391 23.5153 211.058 25.2832C209.725 27.0512 209.058 30.3209 209.058 35.1114C209.058 39.902 209.687 43.2287 210.925 45.1107C212.181 46.9927 214.771 47.9242 218.713 47.9242L226.462 47.3349L226.652 51.4031C222.577 52.0114 219.531 52.3156 217.532 52.3156C212.41 52.3156 208.868 51.0039 206.926 48.3805C204.984 45.7571 204.013 41.3277 204.013 35.1114C204.013 28.8952 205.06 24.5228 207.154 22.0135C209.23 19.5042 212.734 18.2495 217.646 18.2495Z" fill="black"/>
<path d="M257.155 28.8015V45.5874C257.288 47.2033 258.564 48.1728 260.963 48.477L260.773 52.336C257.307 52.336 254.717 51.4615 252.966 49.7126C249.024 51.4615 245.083 52.336 241.142 52.336C238.114 52.336 235.829 51.4805 234.249 49.7886C232.668 48.0777 231.887 45.6445 231.887 42.4508C231.887 39.2571 232.706 36.9188 234.325 35.398C235.943 33.8962 238.476 32.9647 241.941 32.6226L252.242 31.634V28.8205C252.242 26.5964 251.766 24.9995 250.795 24.03C249.824 23.0605 248.51 22.5852 246.853 22.5852C243.351 22.5852 239.714 22.8134 235.962 23.2316L233.925 23.4217L233.734 19.6767C238.552 18.7072 242.817 18.2319 246.53 18.2319C250.243 18.2319 252.947 19.0874 254.641 20.7793C256.317 22.5092 257.155 25.1896 257.155 28.8015ZM236.934 42.1846C236.934 46.1957 238.59 48.2108 241.922 48.2108C244.893 48.2108 247.824 47.7166 250.719 46.709L252.223 46.1767V35.36L242.513 36.2725C240.551 36.4436 239.123 37.0139 238.247 37.9834C237.371 38.9529 236.934 40.3406 236.934 42.1846Z" fill="black"/>
<path d="M266.865 66.2309V18.9149H271.721V21.2721C275.053 19.257 278.328 18.2495 281.564 18.2495C285.715 18.2495 288.743 19.5802 290.628 22.2226C292.513 24.865 293.446 29.2183 293.446 35.3015C293.446 41.3658 292.342 45.7381 290.133 48.3805C287.924 51.0229 284.249 52.3536 279.146 52.3536C276.481 52.3536 274.025 52.1064 271.797 51.6312V66.2499H266.865V66.2309ZM280.86 22.6408C279.546 22.6408 278.137 22.869 276.633 23.2872C275.129 23.7244 273.93 24.1616 273.054 24.5989L271.797 25.2452V47.3349C274.901 47.8102 277.262 48.0573 278.88 48.0573C282.421 48.0573 284.916 47.0498 286.325 45.0347C287.753 43.0196 288.457 39.7499 288.457 35.2065C288.457 30.6631 287.81 27.4314 286.515 25.5114C285.239 23.6104 283.354 22.6408 280.86 22.6408Z" fill="black"/>
<path d="M323.777 47.6201L325.681 47.43L325.814 51.289C320.825 51.9924 316.56 52.3346 313.018 52.3346C308.297 52.3346 304.945 50.9658 302.984 48.2474C301.023 45.5099 300.033 41.2707 300.033 35.4916C300.033 24.0096 304.603 18.2495 313.761 18.2495C318.178 18.2495 321.492 19.4852 323.681 21.9565C325.871 24.4278 326.956 28.3058 326.956 33.5906L326.69 37.3356H305.022C305.022 40.9665 305.669 43.647 306.983 45.3959C308.297 47.1448 310.581 48.0193 313.837 48.0193C317.093 48.0193 320.406 47.8862 323.777 47.6201ZM322.006 33.4005C322.006 29.3894 321.358 26.5379 320.063 24.884C318.769 23.2302 316.674 22.3937 313.761 22.3937C310.848 22.3937 308.658 23.2682 307.192 25.0171C305.726 26.766 304.964 29.5605 304.926 33.4005H322.006Z" fill="black"/>
<path d="M79.5821 39.8831C71.1281 39.8831 64.2545 33.0205 64.2545 24.58C64.2545 17.6413 69.1098 11.7482 76.6499 9.58107C82.5336 7.88918 107.267 1.00753 108.314 0.703374C108.581 0.627334 108.828 0.551293 109.095 0.475253C109.114 0.475253 109.133 0.456242 109.152 0.456242C110.352 0.152081 111.589 0 112.846 0C121.3 0 128.174 6.86264 128.174 15.3031C128.174 22.3368 123.375 27.9638 115.34 30.3781L84.3805 39.1037C83.9426 39.2558 83.5046 39.3699 83.0476 39.4839C83.0286 39.4839 83.0286 39.4839 83.0096 39.5029C81.9048 39.7501 80.7436 39.8831 79.5821 39.8831ZM112.865 4.5244C111.989 4.5244 111.113 4.63846 110.256 4.84757C110.028 4.9046 109.837 4.96163 109.628 5.01866C109.609 5.01866 109.59 5.03767 109.552 5.03767C109.304 5.11371 83.8665 12.1855 77.8875 13.8964C73.4701 15.17 68.748 18.6489 68.748 24.58C68.748 30.5302 73.6033 35.3777 79.5631 35.3777C80.3818 35.3777 81.2006 35.2827 82.0006 35.1116C82.3428 35.0356 82.6667 34.9405 83.0096 34.8264C83.0476 34.8074 83.0856 34.8074 83.1046 34.7884L114.084 26.0628C116.94 25.2074 123.661 22.4319 123.661 15.3031C123.68 9.37196 118.825 4.5244 112.865 4.5244Z" fill="#05E2B7"/>
<g opacity="0.7">
<path opacity="0.7" d="M74.955 54.5023C66.501 54.5023 59.6274 47.6396 59.6274 39.1992C59.6274 32.2605 64.4827 26.3674 72.0228 24.2002C77.9063 22.5083 102.64 15.6267 103.687 15.3225C103.954 15.2465 104.201 15.1704 104.468 15.0944C104.487 15.0944 104.506 15.0754 104.525 15.0754C105.724 14.7712 106.962 14.6191 108.219 14.6191C116.672 14.6191 123.546 21.4818 123.546 29.9222C123.546 36.956 118.748 42.583 110.713 44.9972L79.7532 53.7038C79.3152 53.8559 78.8773 53.97 78.4204 54.084C78.4013 54.084 78.4013 54.084 78.3823 54.1031C77.2779 54.3692 76.1164 54.5023 74.955 54.5023ZM108.238 19.1435C107.362 19.1435 106.486 19.2576 105.629 19.4667C105.401 19.5237 105.21 19.5808 105.001 19.6378C104.982 19.6378 104.963 19.6568 104.925 19.6568C104.677 19.7329 79.2391 26.8046 73.2604 28.5155C68.8429 29.7892 64.1209 33.268 64.1209 39.1992C64.1209 45.1493 68.9762 49.9969 74.936 49.9969C75.7546 49.9969 76.5734 49.9018 77.3731 49.7307C77.7158 49.6547 78.0395 49.5597 78.3633 49.4456C78.4013 49.4266 109.438 40.701 109.438 40.701C112.294 39.8455 119.014 37.07 119.014 29.9413C119.053 23.9911 114.198 19.1435 108.238 19.1435Z" fill="#05E2B7"/>
</g>
<g opacity="0.45">
<path opacity="0.45" d="M70.3277 69.4988C61.8737 69.4988 55 62.6362 55 54.1957C55 47.2571 59.8554 41.3639 67.3954 39.1968C73.2789 37.5049 98.0129 30.6233 99.0599 30.3191C99.3261 30.2431 99.5739 30.167 99.8408 30.091C99.8598 30.091 99.8788 30.072 99.8978 30.072C101.097 29.7678 102.335 29.6157 103.592 29.6157C112.045 29.6157 118.919 36.4784 118.919 44.9188C118.919 51.9526 114.121 57.5795 106.086 59.9938L75.1259 68.7194C74.6689 68.8715 74.2119 69.0046 73.755 69.0996C72.6506 69.3848 71.4891 69.4988 70.3277 69.4988ZM103.611 34.1591C102.735 34.1591 101.859 34.2732 101.002 34.4823C100.774 34.5393 100.583 34.5964 100.374 34.6534C100.355 34.6534 100.336 34.6724 100.298 34.6724C100.05 34.7484 74.6117 41.8202 68.6331 43.5311C64.2156 44.8048 59.4936 48.2836 59.4936 54.2147C59.4936 60.1649 64.3489 65.0125 70.3086 65.0125C71.1273 65.0125 71.9461 64.9174 72.7458 64.7463C73.0885 64.6703 73.4122 64.5752 73.755 64.4612C73.7931 64.4422 73.8311 64.4422 73.8502 64.4232L104.829 55.6975C107.685 54.8421 114.406 52.0666 114.406 44.9378C114.425 38.9877 109.57 34.1591 103.611 34.1591Z" fill="#05E2B7"/>
</g>
</svg>
