<svg width="116" height="30" viewBox="0 0 116 30" fill="none" xmlns="http://www.w3.org/2000/svg">
<path d="M46.8354 20.2126L47.6435 20.1319L47.7 21.7699C45.5828 22.0685 43.7723 22.2137 42.269 22.2137C40.2648 22.2137 38.8425 21.6328 38.0099 20.4789C37.1775 19.317 36.7573 17.5175 36.7573 15.0646C36.7573 10.191 38.697 7.74609 42.5843 7.74609C44.4594 7.74609 45.8656 8.27057 46.795 9.31953C47.7245 10.3685 48.1851 12.0145 48.1851 14.2577L48.0718 15.8473H38.8667C38.8667 17.3884 39.1414 18.5262 39.6991 19.2686C40.2567 20.0109 41.2266 20.3821 42.6085 20.3821C43.9985 20.3821 45.405 20.3256 46.8354 20.2126ZM46.0837 14.177C46.0837 12.4745 45.8091 11.2641 45.2595 10.5621C44.7098 9.86014 43.8207 9.50511 42.5843 9.50511C41.3479 9.50511 40.4184 9.87628 39.7962 10.6186C39.1736 11.361 38.8506 12.5471 38.8344 14.177H46.0837Z" fill="black"/>
<path d="M55.8057 9.61073C53.7773 9.61073 52.7671 10.3127 52.7671 11.7248C52.7671 12.3703 53.0014 12.8302 53.4619 13.1046C53.9225 13.3708 54.9814 13.6532 56.638 13.9357C58.2949 14.2261 59.4587 14.6296 60.1458 15.146C60.8326 15.6624 61.1802 16.6387 61.1802 18.0669C61.1802 19.4951 60.7193 20.5441 59.7982 21.2138C58.8768 21.8835 57.5352 22.2143 55.7734 22.2143C54.6177 22.2143 53.268 22.0852 51.7082 21.827L50.8759 21.6899L50.9888 19.8824C53.1063 20.1971 54.7067 20.3585 55.7814 20.3585C56.8565 20.3585 57.6807 20.1891 58.2465 19.8421C58.8122 19.4951 59.095 18.9222 59.095 18.1153C59.095 17.3085 58.8526 16.7598 58.3675 16.4774C57.8828 16.1869 56.8239 15.9206 55.1915 15.6543C53.5591 15.3961 52.3953 15.0169 51.7082 14.5166C51.0214 14.0163 50.6738 13.0884 50.6738 11.7328C50.6738 10.3773 51.1505 9.37673 52.1123 8.73122C53.0659 8.08571 54.262 7.75488 55.6927 7.75488C56.8239 7.75488 58.2465 7.88399 59.9518 8.14219L60.7357 8.27936L60.679 10.0626C58.6183 9.76404 56.9936 9.61073 55.8057 9.61073Z" fill="black"/>
<path d="M69.6021 7.74609C70.2162 7.74609 71.259 7.85906 72.7216 8.07692L73.3926 8.15761L73.3116 9.85208C71.8247 9.68263 70.7336 9.60194 70.0223 9.60194C68.4464 9.60194 67.3716 9.98118 66.8059 10.7316C66.2401 11.482 65.9571 12.8698 65.9571 14.9032C65.9571 16.9366 66.224 18.3486 66.7494 19.1474C67.2826 19.9463 68.3818 20.3416 70.0549 20.3416L73.3442 20.0915L73.4249 21.8183C71.6953 22.0765 70.4021 22.2056 69.5537 22.2056C67.3797 22.2056 65.8764 21.6488 65.0521 20.5353C64.2279 19.4218 63.8154 17.5417 63.8154 14.9032C63.8154 12.2647 64.2601 10.4088 65.149 9.34374C66.03 8.27864 67.5172 7.74609 69.6021 7.74609Z" fill="black"/>
<path d="M86.3718 12.2246V19.3494C86.4283 20.0353 86.9698 20.4468 87.988 20.5759L87.9073 22.2139C86.4363 22.2139 85.3371 21.8427 84.5938 21.1004C82.9208 21.8427 81.2477 22.2139 79.575 22.2139C78.2898 22.2139 77.32 21.8508 76.6494 21.1327C75.9784 20.4065 75.647 19.3736 75.647 18.0181C75.647 16.6625 75.9946 15.67 76.6816 15.0245C77.3684 14.3871 78.4435 13.9917 79.9142 13.8464L84.2866 13.4269V12.2327C84.2866 11.2886 84.0846 10.6108 83.6724 10.1993C83.2603 9.78778 82.7026 9.58606 81.9994 9.58606C80.5125 9.58606 78.9689 9.68289 77.3765 9.8604L76.5119 9.94109L76.4309 8.35152C78.4757 7.94001 80.286 7.73828 81.8622 7.73828C83.4381 7.73828 84.5858 8.10138 85.3048 8.81951C86.0161 9.55378 86.3718 10.6915 86.3718 12.2246ZM77.7889 17.9051C77.7889 19.6076 78.4919 20.4629 79.9061 20.4629C81.167 20.4629 82.4115 20.2531 83.6401 19.8255L84.2785 19.5996V15.0084L80.1569 15.3957C79.3242 15.4683 78.7181 15.7104 78.3463 16.1219C77.9745 16.5334 77.7889 17.1224 77.7889 17.9051Z" fill="black"/>
<path d="M90.4937 28.112V8.02851H92.5546V9.02905C93.9689 8.17375 95.3589 7.74609 96.7328 7.74609C98.4946 7.74609 99.7797 8.31092 100.58 9.43249C101.38 10.5541 101.776 12.4018 101.776 14.9839C101.776 17.5579 101.307 19.4137 100.37 20.5353C99.4321 21.6569 97.8723 22.2217 95.7065 22.2217C94.575 22.2217 93.5325 22.1168 92.5869 21.9151V28.1201H90.4937V28.112ZM96.4339 9.61001C95.8762 9.61001 95.2782 9.70684 94.6398 9.88435C94.0011 10.0699 93.4922 10.2555 93.1204 10.4411L92.5869 10.7154V20.0915C93.9043 20.2932 94.9064 20.3981 95.5932 20.3981C97.0965 20.3981 98.1554 19.9705 98.7534 19.1152C99.3595 18.2599 99.6584 16.872 99.6584 14.9436C99.6584 13.0151 99.3837 11.6434 98.8341 10.8284C98.2926 10.0215 97.4925 9.61001 96.4339 9.61001Z" fill="black"/>
<path d="M114.65 20.2125L115.458 20.1319L115.514 21.7698C113.397 22.0684 111.587 22.2136 110.083 22.2136C108.079 22.2136 106.657 21.6327 105.824 20.4788C104.992 19.3169 104.572 17.5175 104.572 15.0646C104.572 10.191 106.511 7.74609 110.399 7.74609C112.274 7.74609 113.68 8.27057 114.609 9.31953C115.539 10.3685 116 12.0145 116 14.2577L115.886 15.8473H106.689C106.689 17.3884 106.964 18.5261 107.522 19.2685C108.079 20.0108 109.049 20.382 110.431 20.382C111.813 20.382 113.219 20.3255 114.65 20.2125ZM113.898 14.177C113.898 12.4745 113.623 11.2641 113.074 10.5621C112.524 9.86015 111.635 9.50511 110.399 9.50511C109.162 9.50511 108.233 9.87628 107.61 10.6186C106.988 11.361 106.665 12.5471 106.649 14.177H113.898Z" fill="black"/>
<path d="M11.0005 16.9285C7.41215 16.9285 4.49463 14.0157 4.49463 10.4331C4.49463 7.48794 6.55549 4.98658 9.75589 4.06672C12.2533 3.34859 22.7515 0.427652 23.1959 0.29855C23.3092 0.266274 23.4141 0.233998 23.5274 0.201723C23.5355 0.201723 23.5435 0.193654 23.5516 0.193654C24.0609 0.0645513 24.586 0 25.1194 0C28.7079 0 31.6255 2.91287 31.6255 6.49546C31.6255 9.48095 29.5887 11.8693 26.178 12.8941L13.0372 16.5977C12.8513 16.6623 12.6654 16.7107 12.4714 16.7591C12.4634 16.7591 12.4634 16.7591 12.4553 16.7672C11.9864 16.8721 11.4935 16.9285 11.0005 16.9285ZM25.1275 1.9204C24.7557 1.9204 24.3839 1.96881 24.0202 2.05757C23.9234 2.08178 23.8424 2.10598 23.7536 2.13019C23.7456 2.13019 23.7375 2.13826 23.7214 2.13826C23.6161 2.17053 12.819 5.17216 10.2812 5.89836C8.40624 6.43898 6.40193 7.91559 6.40193 10.4331C6.40193 12.9586 8.46279 15.0162 10.9924 15.0162C11.3399 15.0162 11.6875 14.9759 12.027 14.9033C12.1723 14.871 12.3098 14.8306 12.4553 14.7822C12.4714 14.7742 12.4876 14.7742 12.4957 14.7661L25.6449 11.0625C26.857 10.6994 29.71 9.5213 29.71 6.49546C29.7181 3.97797 27.6571 1.9204 25.1275 1.9204Z" fill="#05E2B7"/>
<g opacity="0.7">
<path opacity="0.7" d="M9.03613 23.1336C5.4478 23.1336 2.53027 20.2208 2.53027 16.6382C2.53027 13.693 4.59113 11.1917 7.79154 10.2718C10.2888 9.55367 20.7872 6.63273 21.2316 6.50363C21.3449 6.47135 21.4498 6.43908 21.5631 6.4068C21.5711 6.4068 21.5792 6.39873 21.5873 6.39873C22.0962 6.26963 22.6216 6.20508 23.1551 6.20508C26.7433 6.20508 29.6608 9.11795 29.6608 12.7005C29.6608 15.686 27.6244 18.0744 24.2137 19.0992L11.0728 22.7947C10.8869 22.8593 10.701 22.9077 10.507 22.9561C10.4989 22.9561 10.4989 22.9561 10.4909 22.9642C10.0221 23.0771 9.52911 23.1336 9.03613 23.1336ZM23.1632 8.12548C22.7914 8.12548 22.4196 8.17389 22.0559 8.26265C21.9591 8.28685 21.8781 8.31106 21.7893 8.33527C21.7812 8.33527 21.7732 8.34334 21.757 8.34334C21.6518 8.37561 10.8546 11.3772 8.31685 12.1034C6.44186 12.6441 4.43757 14.1207 4.43757 16.6382C4.43757 19.1637 6.49843 21.2213 9.02806 21.2213C9.37555 21.2213 9.72307 21.181 10.0625 21.1083C10.208 21.0761 10.3454 21.0357 10.4828 20.9873C10.4989 20.9792 23.6725 17.2756 23.6725 17.2756C24.8847 16.9125 27.7373 15.7344 27.7373 12.7086C27.7538 10.183 25.6928 8.12548 23.1632 8.12548Z" fill="#05E2B7"/>
</g>
<g opacity="0.45">
<path opacity="0.45" d="M7.0723 29.4989C3.48396 29.4989 0.566406 26.586 0.566406 23.0034C0.566406 20.0582 2.6273 17.5569 5.8277 16.637C8.32496 15.9189 18.8234 12.998 19.2678 12.8689C19.3808 12.8366 19.486 12.8043 19.5993 12.772C19.6073 12.772 19.6154 12.764 19.6235 12.764C20.1324 12.6349 20.6578 12.5703 21.1913 12.5703C24.7795 12.5703 27.697 15.4832 27.697 19.0658C27.697 22.0513 25.6606 24.4397 22.2499 25.4644L9.10892 29.168C8.91495 29.2326 8.72099 29.2891 8.52702 29.3294C8.05828 29.4504 7.56527 29.4989 7.0723 29.4989ZM21.1994 14.4988C20.8276 14.4988 20.4558 14.5472 20.0921 14.6359C19.9953 14.6602 19.9143 14.6844 19.8255 14.7086C19.8174 14.7086 19.8094 14.7166 19.7932 14.7166C19.688 14.7489 8.89068 17.7505 6.35301 18.4767C4.47802 19.0174 2.47374 20.494 2.47374 23.0115C2.47374 25.537 4.5346 27.5946 7.0642 27.5946C7.41172 27.5946 7.75924 27.5543 8.09869 27.4816C8.24415 27.4494 8.38154 27.409 8.52702 27.3606C8.54319 27.3525 8.55933 27.3525 8.56743 27.3445L21.7164 23.6408C22.9289 23.2777 25.7816 22.0997 25.7816 19.0738C25.7897 16.5483 23.729 14.4988 21.1994 14.4988Z" fill="#05E2B7"/>
</g>
</svg>
