<svg viewBox="0 0 201 201" fill="none" xmlns="http://www.w3.org/2000/svg">
<path d="M100.5 111.241C79.1209 111.242 59.2957 106.418 47.4674 98.3398C44.7825 96.5065 43.3041 93.7054 43.3041 90.4537V53.708H47.2299V90.4537C47.2299 92.3966 48.0778 94.0026 49.6815 95.0979C60.8829 102.748 79.8806 107.315 100.5 107.315C121.119 107.315 140.117 102.748 151.319 95.0979C152.923 94.0022 153.771 92.3966 153.771 90.4537V53.708H157.697V90.4537C157.697 93.7054 156.218 96.5061 153.533 98.3398C141.704 106.418 121.879 111.241 100.5 111.241Z" fill="#050028"/>
<path d="M100.5 75.8886C98.9163 75.8886 97.3334 75.5898 95.7608 74.9923L18.0959 45.485C15.8409 44.6284 14.384 42.5163 14.384 40.1043C14.384 37.6923 15.8409 35.5802 18.0959 34.7236L95.7608 5.21627C98.9053 4.02166 102.094 4.02166 105.238 5.21627L182.904 34.7236C185.159 35.5802 186.616 37.6923 186.616 40.1043C186.616 42.5167 185.159 44.6284 182.904 45.485L105.239 74.9919C103.667 75.5898 102.083 75.8886 100.5 75.8886ZM100.5 8.24501C99.3902 8.24501 98.2807 8.45858 97.1552 8.88609L19.4903 38.3934C18.395 38.81 18.3102 39.8083 18.3102 40.1043C18.3102 40.4003 18.3954 41.399 19.4903 41.8152L97.1552 71.3221C99.4055 72.1771 101.594 72.1768 103.844 71.3221L181.509 41.8152C182.605 41.3986 182.69 40.4003 182.69 40.1043C182.69 39.8083 182.605 38.8096 181.509 38.3934L103.845 8.88609C102.719 8.45858 101.609 8.24501 100.5 8.24501Z" fill="#050028"/>
<path d="M28.6453 78.5506C27.5614 78.5506 26.6824 77.672 26.6824 76.5877V47.3936C26.6824 46.3863 27.4448 45.5422 28.4474 45.4405L100.302 38.1515C101.38 38.0377 102.344 38.8276 102.453 39.9064C102.562 40.9852 101.776 41.9482 100.698 42.0573L30.6082 49.1673V76.5877C30.6082 77.672 29.7296 78.5506 28.6453 78.5506Z" fill="#05E2B7"/>
<path d="M30.7039 108.529H26.5866C23.4126 108.529 20.8302 105.947 20.8302 102.773V82.4397C20.8302 78.1303 24.3359 74.625 28.6453 74.625C32.9546 74.625 36.4599 78.1307 36.4599 82.4397V102.773C36.4603 105.947 33.8779 108.529 30.7039 108.529ZM28.6453 78.5508C26.501 78.5508 24.756 80.2954 24.756 82.4397V102.773C24.756 103.782 25.5773 104.603 26.5866 104.603H30.7039C31.7133 104.603 32.5341 103.782 32.5341 102.773V82.4397C32.5345 80.2954 30.7899 78.5508 28.6453 78.5508Z" fill="#05E2B7"/>
<path d="M15.8551 166.831L15.3479 162.939C35.1409 160.36 58.568 158.719 83.0971 158.193L83.1811 162.118C58.7914 162.641 35.5103 164.27 15.8551 166.831ZM185.244 166.79C184.878 166.79 184.508 166.76 184.135 166.7C167.042 163.925 145.974 162.447 117.832 162.048L117.888 158.122C146.227 158.524 167.477 160.018 184.765 162.825C185.639 162.966 186.398 162.735 187.151 162.094C191.064 158.766 192.756 146.516 192.756 141.002C192.756 135.488 191.064 123.238 187.151 119.909C186.398 119.268 185.64 119.035 184.765 119.179C164.244 122.51 138.255 123.996 100.5 123.996C69.9936 123.996 39.7529 122.245 15.3479 119.065L15.8551 115.172C40.0972 118.331 70.1581 120.07 100.5 120.07C138.036 120.07 163.83 118.6 184.135 115.304C186.145 114.977 188.068 115.536 189.694 116.919C196.381 122.608 196.682 140.82 196.682 141.002C196.682 141.183 196.381 159.395 189.694 165.085C188.37 166.211 186.849 166.79 185.244 166.79Z" fill="#050028"/>
<path d="M113.273 146.497H109.348V121.962H113.273V146.497ZM91.6525 146.497H87.7267V121.962H91.6525V146.497Z" fill="#050028"/>
<path d="M15.6014 166.848C8.2728 166.848 4.31836 153.531 4.31836 141.002C4.31836 128.472 8.2728 115.156 15.6014 115.156C22.9301 115.156 26.8845 128.472 26.8845 141.002C26.8845 153.531 22.9301 166.848 15.6014 166.848ZM15.6014 119.081C12.5291 119.081 8.24414 127.42 8.24414 141.002C8.24414 154.583 12.5295 162.922 15.6014 162.922C18.6734 162.922 22.9588 154.583 22.9588 141.002C22.9588 127.42 18.6738 119.081 15.6014 119.081Z" fill="#050028"/>
<path d="M87.026 196.68C86.9561 196.68 86.8854 196.676 86.8148 196.669C86.0422 196.585 85.3913 196.054 85.1549 195.314L82.9451 188.386L75.8402 189.936C75.081 190.103 74.2954 189.804 73.8369 189.176C73.3784 188.548 73.3332 187.71 73.7219 187.037L84.2265 168.842L87.6262 170.805L79.342 185.153L83.8535 184.169C84.8432 183.954 85.8345 184.526 86.1423 185.49L87.5457 189.889L95.3255 176.415L98.7252 178.378L88.7246 195.698C88.3721 196.31 87.7216 196.68 87.026 196.68Z" fill="#050028"/>
<path d="M113.974 196.68C113.278 196.68 112.628 196.31 112.275 195.698L102.274 178.378L105.674 176.415L113.454 189.889L114.857 185.49C115.166 184.525 116.158 183.954 117.146 184.169L121.658 185.153L113.373 170.805L116.773 168.842L127.278 187.037C127.666 187.71 127.621 188.549 127.163 189.176C126.704 189.804 125.918 190.102 125.159 189.936L118.054 188.386L115.845 195.314C115.608 196.054 114.958 196.585 114.185 196.669C114.115 196.676 114.044 196.68 113.974 196.68Z" fill="#050028"/>
<path d="M12.0191 157.89C10.6141 157.89 8.83376 157.257 7.19907 154.811C5.53258 152.319 4.59706 148.477 4.33875 143.066L8.25982 142.879C8.53423 148.625 9.6095 151.353 10.4626 152.63C11.5928 154.32 12.2606 153.969 12.511 153.838C15.15 152.454 18.5654 142.781 14.3094 132.035C14.07 131.431 14.1453 130.747 14.5108 130.209C14.8763 129.672 15.484 129.35 16.1341 129.35H25.1434V133.275H18.8849C21.2255 141.204 20.2672 149.28 17.58 153.925H23.6995V157.851H12.628C12.4349 157.875 12.2315 157.89 12.0191 157.89Z" fill="#050028"/>
<path d="M96.3843 145.452C95.3004 145.452 94.4214 144.573 94.4214 143.489V137.726C94.4214 136.641 95.3004 135.763 96.3843 135.763C97.4682 135.763 98.3472 136.641 98.3472 137.726V143.489C98.3472 144.573 97.4682 145.452 96.3843 145.452ZM104.616 133.674C103.532 133.674 102.653 132.796 102.653 131.711V122.022C102.653 120.938 103.532 120.06 104.616 120.06C105.7 120.06 106.579 120.938 106.579 122.022V131.711C106.579 132.796 105.7 133.674 104.616 133.674Z" fill="#050028"/>
<path d="M100.5 179.707C89.8439 179.707 81.1746 171.037 81.1746 160.381C81.1746 149.725 89.8439 141.055 100.5 141.055C111.156 141.055 119.825 149.725 119.825 160.381C119.825 171.037 111.156 179.707 100.5 179.707ZM100.5 144.982C92.0089 144.982 85.1003 151.89 85.1003 160.382C85.1003 168.873 92.0089 175.781 100.5 175.781C108.991 175.781 115.9 168.873 115.9 160.381C115.9 151.89 108.991 144.982 100.5 144.982Z" fill="#050028"/>
<g clip-path="url(#clip0_2_191)">
<mask id="mask0_2_191" style="mask-type:luminance" maskUnits="userSpaceOnUse" x="89" y="148" width="24" height="27">
<path d="M113 148.3H89V174.204H113V148.3Z" fill="white"/>
</mask>
<g mask="url(#mask0_2_191)">
<path fill-rule="evenodd" clip-rule="evenodd" d="M101 150.089L109.958 155.671V166.834L101 172.416L92.0426 166.834V155.671L101 150.089ZM93.0477 156.297V164.497L99.6272 152.197L93.0477 156.297ZM101 151.8L93.4155 165.979H108.585L101 151.8ZM107.58 167.064H94.4206L101 171.164L107.58 167.064ZM108.953 164.497L102.373 152.197L108.953 156.297V164.497Z" fill="#E10098"/>
<path d="M101 152.999C102.169 152.999 103.117 151.976 103.117 150.715C103.117 149.453 102.169 148.43 101 148.43C99.8308 148.43 98.8831 149.453 98.8831 150.715C98.8831 151.976 99.8308 152.999 101 152.999Z" fill="#E10098"/>
<path d="M109.455 158.268C110.624 158.268 111.572 157.245 111.572 155.983C111.572 154.722 110.624 153.699 109.455 153.699C108.286 153.699 107.338 154.722 107.338 155.983C107.338 157.245 108.286 158.268 109.455 158.268Z" fill="#E10098"/>
<path d="M109.455 168.806C110.624 168.806 111.572 167.783 111.572 166.521C111.572 165.259 110.624 164.236 109.455 164.236C108.286 164.236 107.338 165.259 107.338 166.521C107.338 167.783 108.286 168.806 109.455 168.806Z" fill="#E10098"/>
<path d="M101 174.074C102.169 174.074 103.117 173.051 103.117 171.79C103.117 170.528 102.169 169.505 101 169.505C99.8308 169.505 98.8831 170.528 98.8831 171.79C98.8831 173.051 99.8308 174.074 101 174.074Z" fill="#E10098"/>
<path d="M92.5439 168.806C93.713 168.806 94.6607 167.783 94.6607 166.521C94.6607 165.259 93.713 164.236 92.5439 164.236C91.3749 164.236 90.4271 165.259 90.4271 166.521C90.4271 167.783 91.3749 168.806 92.5439 168.806Z" fill="#E10098"/>
<path d="M92.5439 158.268C93.713 158.268 94.6607 157.245 94.6607 155.983C94.6607 154.722 93.713 153.699 92.5439 153.699C91.3749 153.699 90.4271 154.722 90.4271 155.983C90.4271 157.245 91.3749 158.268 92.5439 158.268Z" fill="#E10098"/>
</g>
</g>
<defs>
<clipPath id="clip0_2_191">
<rect width="24" height="27" fill="white" transform="translate(89 148)"/>
</clipPath>
</defs>
</svg>
