<svg width="36" height="36" viewBox="0 -1 38 38" fill="none" xmlns="http://www.w3.org/2000/svg"><path d="M12.712 20.659c-4.372 0-7.927-3.555-7.927-7.927 0-3.594 2.511-6.647 6.41-7.77C14.238 4.087 27.03.523 27.572.365l.404-.118c.01 0 .02-.01.03-.01A7.75 7.75 0 0 1 29.914 0c4.371 0 7.926 3.555 7.926 7.927 0 3.643-2.481 6.558-6.637 7.808l-16.01 4.52a7.91 7.91 0 0 1-.69.197c-.01 0-.01 0-.02.01a8.15 8.15 0 0 1-1.772.197ZM29.924 2.344c-.453 0-.906.059-1.349.167-.118.03-.216.059-.325.089-.01 0-.02.01-.04.01-.127.039-13.283 3.702-16.375 4.588-2.284.66-4.726 2.462-4.726 5.534a5.602 5.602 0 0 0 5.593 5.593c.424 0 .847-.05 1.26-.138.178-.04.345-.088.522-.148.02-.01.04-.01.05-.02l16.02-4.519c1.478-.443 4.954-1.88 4.954-5.573.01-3.072-2.502-5.583-5.584-5.583Z" fill="#66DEB9"/><path opacity=".7" d="M10.32 28.231c-4.373 0-7.927-3.555-7.927-7.927 0-3.594 2.51-6.646 6.41-7.769 3.043-.876 15.834-4.44 16.375-4.598.138-.04.266-.08.404-.119.01 0 .02-.01.03-.01a7.75 7.75 0 0 1 1.91-.236c4.372 0 7.927 3.555 7.927 7.927 0 3.643-2.482 6.558-6.637 7.809L12.8 27.818a7.887 7.887 0 0 1-.69.196c-.01 0-.01 0-.02.01a7.592 7.592 0 0 1-1.772.207ZM27.531 9.916c-.453 0-.906.059-1.35.167-.117.03-.216.06-.324.089-.01 0-.02.01-.04.01-.128.04-13.283 3.702-16.375 4.588-2.285.66-4.727 2.462-4.727 5.534a5.602 5.602 0 0 0 5.593 5.593c.424 0 .847-.049 1.26-.137.178-.04.345-.09.513-.148.02-.01 16.07-4.53 16.07-4.53 1.477-.443 4.953-1.88 4.953-5.573.02-3.082-2.491-5.593-5.573-5.593Z" fill="#66DEB9"/><path opacity=".45" d="M7.927 36C3.555 36 0 32.445 0 28.073c0-3.594 2.511-6.647 6.41-7.77 3.043-.876 15.834-4.44 16.376-4.598.138-.04.266-.079.403-.118.01 0 .02-.01.03-.01a7.752 7.752 0 0 1 1.91-.236c4.372 0 7.927 3.555 7.927 7.927 0 3.643-2.481 6.558-6.637 7.808l-16.01 4.52a6.331 6.331 0 0 1-.71.197A7.098 7.098 0 0 1 7.927 36Zm17.212-18.306c-.453 0-.906.06-1.349.168-.118.03-.216.059-.325.088-.01 0-.02.01-.04.01-.127.04-13.283 3.703-16.375 4.589-2.284.66-4.726 2.462-4.726 5.534a5.602 5.602 0 0 0 5.593 5.593c.423 0 .847-.05 1.26-.138.178-.04.345-.089.522-.148.02-.01.04-.01.05-.02l16.02-4.52c1.477-.442 4.953-1.88 4.953-5.573.01-3.082-2.5-5.583-5.583-5.583Z" fill="#66DEB9"/></svg>
